# xmcd CD database file
#
# Track frame offsets:
#	150
#	91958
#	199851
#
# Disc length: 3963 seconds
#
# Revision: 0
# Processed by: cddbd v1.5.2PL0 Copyright (c) Steve Scherf et al.
# Submitted via: CDex 1.51
#
DISCID=1f0f7903
DTITLE=John Richardson and Pia - Gods And Goddesses
DYEAR=2006
DGENRE=New Age
TTITLE0=Temple Of Jewels
TTITLE1=Sri Radhika Stava
TTITLE2=Midnight Rain
EXTD=YEAR: 2006
EXTT0=
EXTT1=
EXTT2=
PLAYORDER=
